<svg width="34" height="33" viewBox="0 0 34 33" fill="none" xmlns="http://www.w3.org/2000/svg">
<path d="M16.5744 0C7.49422 0 0.107422 7.38679 0.107422 16.467C0.107422 25.5471 7.49422 32.9339 16.5744 32.9339C25.6546 32.9339 33.0414 25.5471 33.0414 16.467C33.0414 7.38679 25.6546 0 16.5744 0ZM21.1419 9.76668C21.1419 9.90398 21.0321 10.0138 20.8948 10.0138H18.9177C18.4325 10.0138 18.0389 10.4074 18.0389 10.8925V12.9704H20.8582C21.0046 12.9704 21.1145 13.0985 21.1053 13.2358L20.8582 16.1558C20.849 16.2839 20.7392 16.3846 20.611 16.3846H18.0389V26.0872C18.0389 26.2245 17.9291 26.3343 17.7918 26.3343H14.2494C14.1121 26.3343 14.0023 26.2245 14.0023 26.0872V16.5402V16.3846H12.2265C12.0892 16.3846 11.9794 16.2747 11.9794 16.1374V13.2175C11.9794 13.0802 12.0892 12.9704 12.2265 12.9704H14.0023V10.1511C14.0023 8.18314 15.595 6.5996 17.5538 6.5996H20.9039C21.0413 6.5996 21.1511 6.70944 21.1511 6.84674V9.76668H21.1419Z" fill="white"/>
</svg>
