<svg width="33" height="33" viewBox="0 0 33 33" fill="none" xmlns="http://www.w3.org/2000/svg">
<path d="M18.1294 14.5712V14.5327C18.1195 14.5423 18.1095 14.5616 18.0996 14.5712H18.1294Z" fill="white"/>
<path d="M16.467 0.000488281C7.38996 0.000488281 0 7.39045 0 16.4675C0 25.5445 7.38996 32.9344 16.467 32.9344C25.544 32.9344 32.9339 25.5445 32.9339 16.4675C32.9339 7.39045 25.544 0.000488281 16.467 0.000488281ZM12.3502 23.8666C12.3502 24.0225 12.231 24.1417 12.0752 24.1417H8.9028C8.74693 24.1417 8.62774 24.0225 8.62774 23.8666V13.2126C8.62774 13.0567 8.74693 12.9375 8.9028 12.9375H12.0752C12.231 12.9375 12.3502 13.0567 12.3502 13.2126V23.8666ZM10.379 11.5164C9.27872 11.5164 8.38935 10.627 8.38935 9.52676C8.38935 8.42652 9.27872 7.53715 10.379 7.53715C11.4792 7.53715 12.3686 8.42652 12.3686 9.52676C12.3686 10.627 11.4792 11.5164 10.379 11.5164ZM25.7732 23.8666C25.7732 24.0225 25.654 24.1417 25.4981 24.1417H22.3258C22.1699 24.1417 22.0507 24.0225 22.0507 23.8666V18.1453C22.0507 16.6417 21.5097 15.6148 20.162 15.6148C19.1351 15.6148 18.5208 16.3024 18.2549 16.9809C18.154 17.2193 18.1357 17.5494 18.1357 17.8886V23.8666C18.1357 24.0225 18.0165 24.1417 17.8606 24.1417H14.6882C14.5324 24.1417 14.4132 24.0225 14.4132 23.8666C14.4224 22.3446 14.4499 14.9546 14.4224 13.2217C14.4224 13.0659 14.5415 12.9467 14.6974 12.9467H17.8606C18.0165 12.9467 18.1357 13.0659 18.1357 13.2217V14.5329C18.6308 13.7719 19.511 12.6808 21.4914 12.6808C23.9395 12.6808 25.7824 14.2853 25.7824 17.7236V23.8666H25.7732Z" fill="white"/>
</svg>
