<svg width="34" height="33" viewBox="0 0 34 33" fill="none" xmlns="http://www.w3.org/2000/svg">
<path d="M16.6799 32.9339C7.60321 32.9339 0.212891 25.5528 0.212891 16.467C0.212891 7.39032 7.60321 0 16.6799 0C25.7565 0 33.1468 7.39032 33.1468 16.467C33.1468 25.5528 25.7657 32.9339 16.6799 32.9339ZM22.2364 9.78619C21.5637 9.78619 21.0201 10.3299 21.0201 11.0026C21.0201 11.6752 21.5637 12.2189 22.2364 12.2189C22.9091 12.2189 23.4528 11.6752 23.4528 11.0026C23.4528 10.3299 22.9091 9.78619 22.2364 9.78619ZM16.8181 11.3527C13.9983 11.3527 11.6946 13.6472 11.6946 16.4762C11.6946 19.3051 13.9891 21.5996 16.8181 21.5996C19.6378 21.5996 21.9323 19.3051 21.9323 16.4762C21.9323 13.6472 19.6378 11.3527 16.8181 11.3527ZM16.8181 19.7475C15.012 19.7475 13.5376 18.2731 13.5376 16.467C13.5376 14.6609 15.012 13.1865 16.8181 13.1865C18.6242 13.1865 20.0986 14.6609 20.0986 16.467C20.0986 18.2731 18.6242 19.7475 16.8181 19.7475ZM27.1479 12.2097C27.1479 8.76334 24.3558 5.96202 20.9003 5.96202H12.6622C9.21582 5.96202 6.4145 8.75412 6.4145 12.2097V20.4478C6.4145 23.8942 9.2066 26.6955 12.6622 26.6955H20.9003C24.3466 26.6955 27.1479 23.9034 27.1479 20.4478V12.2097ZM25.1852 20.457C25.1852 22.8252 23.2685 24.7419 20.9003 24.7419H12.6622C10.294 24.7419 8.37726 22.8252 8.37726 20.457V12.2189C8.37726 9.85069 10.294 7.934 12.6622 7.934H20.9003C23.2685 7.934 25.1852 9.85069 25.1852 12.2189V20.457Z" fill="white"/>
</svg>
