<svg width="34" height="33" viewBox="0 0 34 33" fill="none" xmlns="http://www.w3.org/2000/svg">
<circle cx="16.8967" cy="16.467" r="16.467" fill="red"/>
<path d="M26.776 10.7314C26.0411 11.062 25.2581 11.2812 24.4418 11.3876C25.2816 10.8733 25.9226 10.0651 26.2239 9.09105C25.4409 9.56986 24.5764 9.90807 23.6551 10.0968C22.9116 9.28486 21.852 8.78198 20.696 8.78198C18.4532 8.78198 16.6476 10.6491 16.6476 12.938C16.6476 13.2673 16.6747 13.584 16.7414 13.8855C13.3735 13.717 10.3934 12.0614 8.39144 9.53946C8.04193 10.1614 7.83692 10.8733 7.83692 11.6396C7.83692 13.0786 8.5594 14.3542 9.63634 15.0926C8.98549 15.08 8.34698 14.8862 7.80604 14.5809C7.80604 14.5936 7.80604 14.61 7.80604 14.6265C7.80604 16.6456 9.21026 18.3227 11.0517 18.709C10.7219 18.8015 10.3625 18.8458 9.98956 18.8458C9.7302 18.8458 9.46838 18.8306 9.22261 18.7749C9.7475 20.4203 11.2369 21.63 13.008 21.6693C11.6297 22.7751 9.87964 23.4414 7.98512 23.4414C7.6529 23.4414 7.33426 23.4262 7.01562 23.3844C8.81011 24.5713 10.9368 25.249 13.2303 25.249C20.6849 25.249 24.7604 18.9155 24.7604 13.4257C24.7604 13.242 24.7543 13.0647 24.7456 12.8886C25.5496 12.3034 26.2252 11.5725 26.776 10.7314Z" fill="transparent"/>
</svg>
