<svg width="25" height="25" viewBox="0 0 25 25" fill="none" xmlns="http://www.w3.org/2000/svg">
<circle cx="12.8327" cy="12.8717" r="11.9167" fill="white"/>
<path d="M19.9836 8.7213C19.4518 8.96055 18.8852 9.11913 18.2944 9.19613C18.9022 8.82396 19.366 8.23913 19.5841 7.53421C19.0175 7.88071 18.3918 8.12546 17.7251 8.26205C17.187 7.67446 16.4202 7.31055 15.5837 7.31055C13.9606 7.31055 12.6539 8.66171 12.6539 10.3181C12.6539 10.5565 12.6736 10.7856 12.7219 11.0038C10.2846 10.8819 8.128 9.6838 6.67923 7.85871C6.4263 8.3088 6.27794 8.82396 6.27794 9.37855C6.27794 10.4199 6.80078 11.343 7.58013 11.8774C7.10913 11.8682 6.64706 11.728 6.25559 11.507C6.25559 11.5162 6.25559 11.5281 6.25559 11.54C6.25559 13.0012 7.27179 14.2149 8.60437 14.4945C8.36574 14.5614 8.10566 14.5935 7.83574 14.5935C7.64806 14.5935 7.45858 14.5825 7.28073 14.5421C7.66057 15.7329 8.73843 16.6083 10.0201 16.6367C9.02264 17.437 7.7562 17.9191 6.38519 17.9191C6.14477 17.9191 5.91418 17.9081 5.68359 17.8779C6.98221 18.7368 8.52125 19.2272 10.1809 19.2272C15.5756 19.2272 18.525 14.6439 18.525 10.671C18.525 10.5381 18.5205 10.4098 18.5143 10.2824C19.0961 9.85888 19.585 9.32996 19.9836 8.7213Z" fill="#1C1B51"/>
</svg>
