<svg width="34" height="33" viewBox="0 0 34 33" fill="none" xmlns="http://www.w3.org/2000/svg">
<path d="M15.3622 13.7757C15.17 13.6659 14.9961 13.8032 14.9961 14.0229V18.9474C14.9961 19.1671 15.17 19.3044 15.3531 19.1945L19.7284 16.7963C19.9298 16.6865 19.9572 16.4119 19.765 16.2929L15.3622 13.7757Z" fill="white"/>
<path d="M16.7892 0C7.70906 0 0.322266 7.38679 0.322266 16.467C0.322266 25.5471 7.70906 32.9339 16.7892 32.9339C25.8694 32.9339 33.2562 25.5471 33.2562 16.467C33.2562 7.38679 25.8694 0 16.7892 0ZM26.6474 19.1123C26.6474 21.4464 24.7527 23.3412 22.4186 23.3412H11.4528C9.11868 23.3412 7.22393 21.4464 7.22393 19.1123V13.9681C7.22393 11.634 9.11868 9.73922 11.4528 9.73922H22.4186C24.7527 9.73922 26.6474 11.634 26.6474 13.9681V19.1123Z" fill="white"/>
</svg>
