<svg width="370" height="90" viewBox="0 0 370 90" fill="none" xmlns="http://www.w3.org/2000/svg">
<path d="M337.003 83.2787L336.996 83.2737C334.342 81.3048 331.912 79.0376 329.463 76.7527C329.104 76.4174 328.744 76.0817 328.383 75.7465C328.257 75.6276 328.131 75.5087 328.005 75.3898C322.886 70.558 317.789 65.7463 311.259 64.011C305.793 62.5394 300.495 63.37 295.286 65.3282C290.098 67.2785 284.918 70.3799 279.686 73.5193L279.579 73.583C269.853 79.3985 260.05 85.2605 249.044 84.7777L249.04 84.7776C239.487 84.3916 231.742 79.5987 225.14 72.6029C218.524 65.5932 213.126 56.4448 208.279 47.5003L208.278 47.4975C204.105 39.8567 198.619 31.5482 192.015 25.4662C185.412 19.3845 177.569 15.4243 168.75 16.7882C163.147 17.6265 158.428 20.4244 154.131 24.1596C150.001 27.7509 146.201 32.2654 142.361 36.8262C142.219 36.995 142.077 37.1638 141.935 37.3326L141.934 37.3344C133.061 47.921 124.24 58.3999 110.757 58.9777C101.464 59.3603 91.6321 54.2814 82.9507 44.4162L82.9498 44.4152C80.5568 41.7031 78.4256 38.803 76.3135 35.9289C75.8108 35.2449 75.3092 34.5623 74.8054 33.8841C74.5859 33.583 74.3674 33.2829 74.1495 32.9835C70.9115 28.5361 67.8179 24.2868 64.006 20.5685C48.5326 4.80093 23.0059 0.420117 3.14513 9.84755L1.35364 6.33092C22.7457 -3.80797 50.236 0.827045 66.9929 17.5839C71.2292 21.8202 74.7867 26.6586 78.1898 31.3629L78.1944 31.3692C78.4115 31.6645 78.6297 31.9617 78.849 32.2604C81.1435 35.3862 83.5584 38.6761 86.1447 41.6322C88.3326 44.1757 91.7017 47.5732 95.8935 50.2909C100.085 53.0083 105.163 55.0864 110.738 54.8761L110.744 54.8758C116.683 54.613 121.684 52.0073 126.211 48.2732C130.721 44.5537 134.83 39.6524 138.966 34.7192C147.426 24.6479 155.79 14.6985 168.251 12.7654C183.584 10.4667 198.667 21.4371 211.924 45.5584C216.423 53.7582 221.447 62.3527 227.472 68.9866C233.503 75.6269 240.635 80.4103 249.358 80.7759L249.358 80.7759C254.366 80.9846 259.248 79.6268 263.974 77.5686C268.654 75.5306 273.247 72.7748 277.699 70.1036L277.811 70.0363C277.811 70.0361 277.812 70.0359 277.812 70.0356C289.004 63.3808 300.118 56.7732 312.436 60.1414L312.443 60.1432C319.812 62.1019 325.217 67.2227 330.678 72.397C330.855 72.5645 331.032 72.7321 331.209 72.8997C331.21 72.9008 331.211 72.9019 331.213 72.9031L331.279 72.9671C333.848 75.4373 336.569 78.0532 339.4 80.1768L339.403 80.1787C342.079 82.1728 345.388 83.6018 348.711 84.3287C352.028 85.0542 355.433 85.0963 358.289 84.2341L358.296 84.2318C361.094 83.3638 363.119 81.7702 364.253 79.4363L367.984 80.7685C366.392 84.3406 363.484 86.8023 359.32 88.0168L359.293 88.0246L359.267 88.0338C357.726 88.5779 355.759 88.7768 353.6 88.7768C347.906 88.7768 341.72 86.841 337.003 83.2787Z" fill="url(#paint0_linear)" stroke="white" stroke-width="2"/>
<defs>
<linearGradient id="paint0_linear" x1="0" y1="44.899" x2="369.443" y2="44.899" gradientUnits="userSpaceOnUse">
<stop stop-color="#1C1B51"/>
<stop offset="0.1493" stop-color="#2F3B96"/>
<stop offset="0.4005" stop-color="#55ACFF"/>
<stop offset="0.6659" stop-color="#A688FF"/>
<stop offset="1" stop-color="#FF8464"/>
</linearGradient>
</defs>
</svg>
 