<svg width="4" height="308" viewBox="0 0 4 308" fill="none" xmlns="http://www.w3.org/2000/svg"><path d="M.332 305.75c0-1.188.757-2.165 1.7-2.165.941 0 1.698.977 1.698 2.165 0 1.2-.757 2.164-1.699 2.164-.942 0-1.699-.964-1.699-2.164zm0-22.734c0-1.2.757-2.164 1.7-2.164.941 0 1.698.964 1.698 2.164 0 1.2-.757 2.165-1.699 2.165-.942 0-1.699-.965-1.699-2.165zm0-22.733c0-1.2.757-2.165 1.7-2.165.941 0 1.698.965 1.698 2.165 0 1.187-.757 2.164-1.699 2.164-.942 0-1.699-.977-1.699-2.164zm0-22.734c0-1.2.757-2.164 1.7-2.164.941 0 1.698.964 1.698 2.164 0 1.188-.757 2.165-1.699 2.165-.942 0-1.699-.977-1.699-2.165zm0-22.746c0-1.187.757-2.164 1.7-2.164.941 0 1.698.977 1.698 2.164 0 1.2-.757 2.165-1.699 2.165-.942 0-1.699-.965-1.699-2.165zm0-22.733c0-1.2.757-2.165 1.7-2.165.941 0 1.698.965 1.698 2.165 0 1.2-.757 2.164-1.699 2.164-.942 0-1.699-.964-1.699-2.164zm0-22.734c0-1.2.757-2.164 1.7-2.164.941 0 1.698.964 1.698 2.164 0 1.2-.757 2.165-1.699 2.165-.942 0-1.699-.965-1.699-2.165zm0-22.733c0-1.2.757-2.165 1.7-2.165.941 0 1.698.965 1.698 2.165 0 1.187-.757 2.164-1.699 2.164-.942 0-1.699-.977-1.699-2.164zm0-22.734c0-1.2.757-2.164 1.7-2.164.941 0 1.698.964 1.698 2.164 0 1.188-.757 2.152-1.699 2.152-.942 0-1.699-.964-1.699-2.152zm0-22.746c0-1.187.757-2.164 1.7-2.164.941 0 1.698.977 1.698 2.164 0 1.2-.757 2.165-1.699 2.165-.942 0-1.699-.965-1.699-2.165zm0-22.733c0-1.188.757-2.165 1.7-2.165.941 0 1.698.977 1.698 2.165 0 1.2-.757 2.164-1.699 2.164-.942 0-1.699-.965-1.699-2.164zm0-22.734c0-1.2.757-2.164 1.7-2.164.941 0 1.698.964 1.698 2.164 0 1.2-.757 2.165-1.699 2.165-.942 0-1.699-.965-1.699-2.165zm0-22.733c0-1.2.757-2.165 1.7-2.165.941 0 1.698.965 1.698 2.165 0 1.187-.757 2.164-1.699 2.164-.942 0-1.699-.977-1.699-2.164zm0-22.734c0-1.2.757-2.177 1.7-2.177.941 0 1.698.977 1.698 2.177 0 1.188-.757 2.165-1.699 2.165-.942 0-1.699-.977-1.699-2.165zm0-22.746c0-1.187.757-2.164 1.7-2.164.941 0 1.698.977 1.698 2.164 0 1.2-.757 2.165-1.699 2.165-.942 0-1.699-.965-1.699-2.165zm0-22.733c0-1.2.757-2.165 1.7-2.165.941 0 1.698.965 1.698 2.165 0 1.2-.757 2.164-1.699 2.164-.942 0-1.699-.965-1.699-2.164zm0-22.734c0-1.2.757-2.164 1.7-2.164.941 0 1.698.964 1.698 2.164 0 1.2-.757 2.165-1.699 2.165-.942 0-1.699-.965-1.699-2.165zm0-22.733c0-1.2.757-2.165 1.7-2.165.941 0 1.698.965 1.698 2.165 0 1.187-.757 2.164-1.699 2.164-.942 0-1.699-.977-1.699-2.164z" fill="#1B1464"/></svg>