<svg width="10" height="308" viewBox="0 0 10 308" fill="none" xmlns="http://www.w3.org/2000/svg"><path d="M9 1c0 10.931-8 10.931-8 21.853 0 10.931 8 10.931 8 21.853C9 55.637 1 55.637 1 66.56c0 10.932 8 10.932 8 21.853 0 10.932-8 10.932-8 21.854 0 10.922 8 10.922 8 21.853 0 10.931-8 10.931-8 21.853 0 10.931 8 10.931 8 21.853 0 10.931-8 10.931-8 21.863 0 10.931 8 10.931 8 21.862s-8 10.931-8 21.863c0 10.931 8 10.931 8 21.862s-8 10.931-8 21.863c0 10.93 8 10.93 8 21.861" stroke="#1B1464" stroke-width="1.216" stroke-miterlimit="10" stroke-linecap="round"/></svg>