<svg width="34" height="33" viewBox="0 0 34 33" fill="none" xmlns="http://www.w3.org/2000/svg"><path d="M16.574 0C7.494 0 .107 7.387.107 16.467c0 9.08 7.387 16.467 16.467 16.467 9.08 0 16.467-7.387 16.467-16.467C33.041 7.387 25.655 0 16.574 0zm4.568 9.767c0 .137-.11.247-.247.247h-1.977a.879.879 0 00-.88.879v2.077h2.82a.25.25 0 01.247.266l-.247 2.92a.25.25 0 01-.247.229h-2.572v9.702c0 .137-.11.247-.247.247h-3.543a.246.246 0 01-.247-.247v-9.702h-1.776a.246.246 0 01-.247-.248v-2.92c0-.137.11-.247.248-.247h1.775v-2.819A3.549 3.549 0 0117.554 6.6h3.35c.137 0 .247.11.247.247v2.92h-.01z" fill="#fff"/></svg>