<svg width="33" height="33" viewBox="0 0 33 33" fill="none" xmlns="http://www.w3.org/2000/svg"><path d="M18.13 14.571v-.038c-.01.01-.02.029-.03.038h.03z" fill="#fff"/><path d="M16.467 0C7.39 0 0 7.39 0 16.468c0 9.076 7.39 16.466 16.467 16.466 9.077 0 16.467-7.39 16.467-16.466C32.934 7.39 25.544 0 16.467 0zM12.35 23.867a.27.27 0 01-.275.275H8.903a.27.27 0 01-.275-.275V13.213a.27.27 0 01.275-.275h3.172a.27.27 0 01.275.275v10.654zm-1.971-12.35c-1.1 0-1.99-.89-1.99-1.99s.89-1.99 1.99-1.99 1.99.89 1.99 1.99-.89 1.99-1.99 1.99zm15.394 12.35a.27.27 0 01-.275.275h-3.172a.27.27 0 01-.275-.275v-5.722c0-1.503-.541-2.53-1.889-2.53-1.027 0-1.641.687-1.907 1.366-.101.238-.12.568-.12.908v5.978a.27.27 0 01-.274.275h-3.173a.27.27 0 01-.275-.275c.01-1.522.037-8.912.01-10.645a.27.27 0 01.274-.275h3.164a.27.27 0 01.275.275v1.31c.495-.76 1.375-1.851 3.355-1.851 2.448 0 4.291 1.604 4.291 5.043v6.143h-.009z" fill="#fff"/></svg>