<svg width="34" height="33" viewBox="0 0 34 33" fill="none" xmlns="http://www.w3.org/2000/svg"><path d="M16.68 32.934C7.603 32.934.213 25.553.213 16.467.213 7.39 7.603 0 16.68 0c9.076 0 16.467 7.39 16.467 16.467 0 9.086-7.381 16.467-16.467 16.467zm5.556-23.148a1.215 1.215 0 100 2.433 1.215 1.215 0 100-2.433zm-5.418 1.567a5.13 5.13 0 00-5.123 5.123 5.124 5.124 0 005.123 5.124 5.122 5.122 0 005.114-5.124 5.122 5.122 0 00-5.114-5.123zm0 8.394a3.288 3.288 0 01-3.28-3.28 3.288 3.288 0 013.28-3.28 3.288 3.288 0 013.28 3.28 3.288 3.288 0 01-3.28 3.28zm10.33-7.537A6.247 6.247 0 0020.9 5.962h-8.238a6.247 6.247 0 00-6.248 6.248v8.238a6.247 6.247 0 006.248 6.247H20.9a6.247 6.247 0 006.248-6.247V12.21zm-1.963 8.247a4.283 4.283 0 01-4.285 4.285h-8.238a4.283 4.283 0 01-4.285-4.285v-8.238a4.283 4.283 0 014.285-4.285H20.9a4.283 4.283 0 014.285 4.285v8.238z" fill="#fff"/></svg>