<svg width="34" height="33" viewBox="0 0 34 33" fill="none" xmlns="http://www.w3.org/2000/svg"><circle cx="16.897" cy="16.467" r="16.467" fill="#fff"/><path d="M26.776 10.731a8.293 8.293 0 01-2.334.657 4.115 4.115 0 001.782-2.297 7.974 7.974 0 01-2.569 1.006 4.013 4.013 0 00-2.959-1.315c-2.243 0-4.048 1.867-4.048 4.156 0 .33.027.646.093.947-3.367-.168-6.348-1.824-8.35-4.346a4.265 4.265 0 00-.554 2.1 4.19 4.19 0 001.8 3.454 3.923 3.923 0 01-1.831-.512v.046c0 2.019 1.404 3.696 3.246 4.082-.33.093-.69.137-1.062.137-.26 0-.522-.015-.767-.071.524 1.645 2.014 2.855 3.785 2.894a8.012 8.012 0 01-5.023 1.772 7.4 7.4 0 01-.97-.057 11.199 11.199 0 006.215 1.865c7.455 0 11.53-6.333 11.53-11.823 0-.184-.006-.361-.014-.537a8.199 8.199 0 002.03-2.158z" fill="#487CFF"/></svg>