<svg width="25" height="25" viewBox="0 0 25 25" fill="none" xmlns="http://www.w3.org/2000/svg"><circle cx="12.833" cy="12.872" r="11.917" fill="#fff"/><path d="M19.984 8.721a5.993 5.993 0 01-1.69.475 2.978 2.978 0 001.29-1.662 5.77 5.77 0 01-1.859.728 2.904 2.904 0 00-2.141-.951c-1.623 0-2.93 1.35-2.93 3.007 0 .239.02.468.068.686-2.437-.122-4.594-1.32-6.043-3.145-.253.45-.401.965-.401 1.52 0 1.04.523 1.964 1.302 2.498a2.84 2.84 0 01-1.324-.37v.033c0 1.461 1.016 2.675 2.348 2.955a2.858 2.858 0 01-.768.099c-.188 0-.377-.011-.555-.052.38 1.19 1.457 2.066 2.74 2.095a5.797 5.797 0 01-4.337 1.24 8.104 8.104 0 004.497 1.35c5.395 0 8.344-4.583 8.344-8.556 0-.133-.005-.261-.01-.389a5.934 5.934 0 001.469-1.56z" fill="#1C1B51"/></svg>