<svg width="34" height="33" viewBox="0 0 34 33" fill="none" xmlns="http://www.w3.org/2000/svg"><path d="M15.362 13.776c-.192-.11-.366.027-.366.247v4.924c0 .22.174.357.357.248l4.375-2.399c.202-.11.23-.384.037-.503l-4.403-2.517z" fill="#fff"/><path d="M16.79 0C7.71 0 .321 7.387.321 16.467c0 9.08 7.387 16.467 16.467 16.467 9.08 0 16.467-7.387 16.467-16.467C33.256 7.387 25.87 0 16.79 0zm9.857 19.112a4.23 4.23 0 01-4.228 4.23H11.453a4.23 4.23 0 01-4.23-4.23v-5.144a4.23 4.23 0 014.23-4.229h10.966a4.23 4.23 0 014.228 4.23v5.143z" fill="#fff"/></svg>