<svg width="40" height="40" viewBox="0 0 40 40" fill="none" xmlns="http://www.w3.org/2000/svg">
<circle cx="20.4998" cy="20.5003" r="16.3929" fill="white"/>
<path d="M21.8997 17.6924V17.6465C21.8879 17.658 21.8761 17.6809 21.8643 17.6924H21.8997Z" fill="#C4C4C4"/>
<path d="M19.9343 0.463867C9.20199 0.463867 0.464355 9.2015 0.464355 19.9338C0.464355 30.6661 9.20199 39.4038 19.9343 39.4038C30.6666 39.4038 39.4043 30.6661 39.4043 19.9338C39.4043 9.2015 30.6666 0.463867 19.9343 0.463867ZM15.0668 28.6823C15.0668 28.8666 14.9259 29.0075 14.7416 29.0075H10.9907C10.8064 29.0075 10.6655 28.8666 10.6655 28.6823V16.0854C10.6655 15.9011 10.8064 15.7601 10.9907 15.7601H14.7416C14.9259 15.7601 15.0668 15.9011 15.0668 16.0854V28.6823ZM12.7361 14.0798C11.4352 14.0798 10.3836 13.0283 10.3836 11.7274C10.3836 10.4265 11.4352 9.37495 12.7361 9.37495C14.037 9.37495 15.0885 10.4265 15.0885 11.7274C15.0885 13.0283 14.037 14.0798 12.7361 14.0798ZM30.9377 28.6823C30.9377 28.8666 30.7967 29.0075 30.6124 29.0075H26.8615C26.6772 29.0075 26.5363 28.8666 26.5363 28.6823V21.9177C26.5363 20.1398 25.8967 18.9256 24.3031 18.9256C23.089 18.9256 22.3626 19.7387 22.0483 20.5409C21.929 20.8228 21.9073 21.213 21.9073 21.6141V28.6823C21.9073 28.8666 21.7664 29.0075 21.5821 29.0075H17.8312C17.6469 29.0075 17.506 28.8666 17.506 28.6823C17.5168 26.8827 17.5494 18.1451 17.5168 16.0962C17.5168 15.9119 17.6578 15.771 17.8421 15.771H21.5821C21.7664 15.771 21.9073 15.9119 21.9073 16.0962V17.6464C22.4927 16.7466 23.5334 15.4566 25.875 15.4566C28.7695 15.4566 30.9485 17.3537 30.9485 21.419V28.6823H30.9377Z" fill="#2867B2"/>
</svg>
