<svg width="146" height="43" viewBox="0 0 146 43" fill="none" xmlns="http://www.w3.org/2000/svg">
<path d="M65.2862 0.893311C66.035 0.893311 66.5729 1.43472 66.5729 2.15895C66.5729 2.8867 66.0315 3.44569 65.2862 3.44569C64.5408 3.44569 64.0205 2.88318 64.0205 2.15895C64.017 1.43121 64.5795 0.893311 65.2862 0.893311ZM66.0948 5.58674V15.972H64.474V5.58674H66.0948Z" fill="white"/>
<path d="M69.3994 5.58658H70.978V7.12292C71.7057 6.06471 72.9502 5.37915 74.5077 5.37915C77.2921 5.37915 79.0148 7.2073 79.0148 10.1991V15.9719H77.3941V10.1956C77.3941 8.18114 76.3569 6.83112 74.2792 6.83112C72.3877 6.83112 70.999 8.32529 70.999 10.2167V15.9719H69.3994V5.58658Z" fill="white"/>
<path d="M81.0713 5.58681H82.8573V3.13639L84.478 2.24341V5.58681H86.9284V7.0423H84.478V11.9853C84.478 14.1053 84.8717 14.4569 86.9284 14.4569V15.9721H86.6999C83.6659 15.9721 82.8573 15.1002 82.8573 12.0064V7.03879H81.0713V5.58681Z" fill="white"/>
<path d="M89.7764 11.3594V5.58667H91.3971V11.3594C91.3971 13.3739 92.4342 14.7239 94.512 14.7239C96.4034 14.7239 97.7921 13.2297 97.7921 11.3383V5.58667H99.3917V15.972H97.8132V14.4356C97.0854 15.4938 95.862 16.1794 94.3643 16.1794C91.3338 16.1794 89.7764 14.3512 89.7764 11.3594Z" fill="white"/>
<path d="M103.509 0.893311C104.258 0.893311 104.796 1.43472 104.796 2.15895C104.796 2.8867 104.254 3.44569 103.509 3.44569C102.764 3.44569 102.243 2.88318 102.243 2.15895C102.24 1.43121 102.802 0.893311 103.509 0.893311ZM104.317 5.58674V15.972H102.697V5.58674H104.317Z" fill="white"/>
<path d="M106.937 5.58681H108.722V3.13639L110.343 2.24341V5.58681H112.794V7.0423H110.343V11.9853C110.343 14.1053 110.737 14.4569 112.794 14.4569V15.9721H112.565C109.531 15.9721 108.722 15.1002 108.722 12.0064V7.03879H106.937V5.58681Z" fill="white"/>
<path d="M116.492 0.893311C117.241 0.893311 117.779 1.43472 117.779 2.15895C117.779 2.8867 117.238 3.44569 116.492 3.44569C115.747 3.44569 115.227 2.88318 115.227 2.15895C115.223 1.43121 115.786 0.893311 116.492 0.893311ZM117.301 5.58674V15.972H115.68V5.58674H117.301Z" fill="white"/>
<path d="M120.208 10.7792C120.208 7.72762 122.595 5.37915 125.587 5.37915C128.579 5.37915 130.987 7.72762 130.987 10.7792C130.987 13.8343 128.579 16.1793 125.587 16.1793C122.595 16.1793 120.208 13.8308 120.208 10.7792ZM129.37 10.7792C129.37 8.59951 127.707 6.83112 125.591 6.83112C123.474 6.83112 121.832 8.59599 121.832 10.7792C121.832 12.9589 123.474 14.7273 125.591 14.7273C127.707 14.7273 129.37 12.9589 129.37 10.7792Z" fill="white"/>
<path d="M133.898 5.58658H135.477V7.12292C136.205 6.06471 137.449 5.37915 139.007 5.37915C141.791 5.37915 143.514 7.2073 143.514 10.1991V15.9719H141.893V10.1956C141.893 8.18114 140.856 6.83112 138.778 6.83112C136.887 6.83112 135.498 8.32529 135.498 10.2167V15.9719H133.898V5.58658Z" fill="white"/>
<path d="M64.4736 24.2407H66.0733V25.8614C66.6955 24.8243 67.7959 24.2407 69.2936 24.2407H70.2499V25.7349H69.2303C66.9873 25.7349 66.0944 26.8353 66.0944 29.2435V34.6225H64.4736V24.2407Z" fill="white"/>
<path d="M72.0576 29.4335C72.0576 26.3784 74.4448 24.0334 77.4366 24.0334C80.4284 24.0334 82.8367 26.3819 82.8367 29.4335C82.8367 32.4851 80.4284 34.8336 77.4366 34.8336C74.4448 34.8336 72.0576 32.4851 72.0576 29.4335ZM81.2195 29.4335C81.2195 27.2538 79.5566 25.4854 77.4401 25.4854C75.3237 25.4854 73.6819 27.2503 73.6819 29.4335C73.6819 31.6132 75.3237 33.3816 77.4401 33.3816C79.5566 33.3816 81.2195 31.6132 81.2195 29.4335Z" fill="white"/>
<path d="M87.3049 32.9209V34.6225H85.7686V19.4629H87.326V25.9212C88.1979 24.6942 89.7764 24.0298 91.1264 24.0298C94.2202 24.0298 96.4421 26.4591 96.4421 29.4298C96.4421 32.4006 94.1781 34.8299 91.1264 34.8299C89.7764 34.8334 88.1768 34.169 87.3049 32.9209ZM94.8249 29.4333C94.8249 27.2536 93.162 25.4852 91.0456 25.4852C88.8237 25.4852 87.1608 27.2712 87.1608 29.4333C87.1608 31.6131 88.8237 33.3814 91.0456 33.3814C93.162 33.3779 94.8249 31.6131 94.8249 29.4333Z" fill="white"/>
<path d="M99.0615 29.4335C99.0615 26.3784 101.449 24.0334 104.441 24.0334C107.432 24.0334 109.841 26.3819 109.841 29.4335C109.841 32.4851 107.432 34.8336 104.441 34.8336C101.449 34.8336 99.0615 32.4851 99.0615 29.4335ZM108.223 29.4335C108.223 27.2538 106.56 25.4854 104.444 25.4854C102.328 25.4854 100.686 27.2503 100.686 29.4335C100.686 31.6132 102.328 33.3816 104.444 33.3816C106.56 33.3816 108.223 31.6132 108.223 29.4335Z" fill="white"/>
<path d="M111.443 24.2409H113.229V21.7904L114.85 20.8975V24.2409H117.3V25.6964H114.85V30.6394C114.85 32.7593 115.244 33.1109 117.3 33.1109V34.6262H117.072C114.038 34.6262 113.229 33.7543 113.229 30.657V25.6928H111.443V24.2409Z" fill="white"/>
<path d="M120.999 19.5471C121.748 19.5471 122.286 20.0885 122.286 20.8128C122.286 21.5405 121.744 22.0995 120.999 22.0995C120.254 22.0995 119.733 21.5405 119.733 20.8128C119.73 20.085 120.292 19.5471 120.999 19.5471ZM121.808 24.2405V34.6258H120.187V24.2405H121.808Z" fill="white"/>
<path d="M124.715 29.4335C124.715 26.3186 127.102 24.0334 130.157 24.0334C132.421 24.0334 134.249 25.2991 135.019 27.1272L133.564 27.7495C132.92 26.3151 131.757 25.4854 130.136 25.4854C127.956 25.4854 126.336 27.2503 126.336 29.4335C126.336 31.6132 127.977 33.3816 130.22 33.3816C131.943 33.3816 133.065 32.3445 133.648 30.9734L135.125 31.5957C134.295 33.4871 132.653 34.8371 130.182 34.8371C127 34.8336 124.715 32.4254 124.715 29.4335Z" fill="white"/>
<path d="M136.848 32.9631L138.113 31.8416C138.964 32.8401 139.963 33.4201 141.415 33.4201C143.056 33.4201 143.907 32.6291 143.907 31.6764C143.907 30.5338 142.413 30.3053 140.979 29.9748C139.316 29.581 137.449 29.0607 137.449 27.0251C137.449 25.4677 138.904 24.0122 141.291 24.0122C142.975 24.0122 144.364 24.5325 145.342 25.6118L144.115 26.6103C143.408 25.7806 142.578 25.3833 141.288 25.3833C139.794 25.3833 139.024 26.1111 139.024 27.004C139.024 28.0623 140.23 28.231 141.829 28.6248C143.552 29.0185 145.486 29.5599 145.486 31.6799C145.486 33.2584 144.115 34.837 141.33 34.837C139.382 34.8335 137.906 34.1901 136.848 32.9631Z" fill="white"/>
<path d="M35.4412 0.000244141C32.7693 0.000244141 30.6247 0.601424 28.9969 2.45067V0.320171H24.1875V18.0532H28.9934V10.6668C28.9934 9.78788 29.1516 8.90545 29.5454 8.12145C29.8653 7.4816 30.3013 6.92612 30.8497 6.45151C32.1716 5.30891 33.831 4.73586 35.8279 4.73586H37.3748V0.242826C36.7947 0.0811047 36.1513 0.000244141 35.4412 0.000244141Z" fill="white"/>
<path d="M8.88797 0.305908H3.625V18.053H8.88797V0.305908Z" fill="white"/>
<path d="M22.1312 42.9899C13.2471 42.9899 4.96413 38.2085 0.509766 30.5092L3.42426 28.8252C7.27744 35.4874 14.4459 39.6254 22.1347 39.6254C34.0423 39.6254 43.7315 29.9362 43.7315 18.0286H47.096C47.0925 31.7924 35.895 42.9899 22.1312 42.9899Z" fill="white"/>
</svg>
