<svg width="4" height="308" viewBox="0 0 4 308" fill="none" xmlns="http://www.w3.org/2000/svg">
<path d="M0.332031 305.75C0.332031 304.562 1.08938 303.585 2.03121 303.585C2.97303 303.585 3.73038 304.562 3.73038 305.75C3.73038 306.95 2.97303 307.914 2.03121 307.914C1.08938 307.914 0.332031 306.95 0.332031 305.75ZM0.332031 283.016C0.332031 281.816 1.08938 280.852 2.03121 280.852C2.97303 280.852 3.73038 281.816 3.73038 283.016C3.73038 284.216 2.97303 285.181 2.03121 285.181C1.08938 285.181 0.332031 284.216 0.332031 283.016ZM0.332031 260.283C0.332031 259.083 1.08938 258.118 2.03121 258.118C2.97303 258.118 3.73038 259.083 3.73038 260.283C3.73038 261.47 2.97303 262.447 2.03121 262.447C1.08938 262.447 0.332031 261.47 0.332031 260.283ZM0.332031 237.549C0.332031 236.349 1.08938 235.385 2.03121 235.385C2.97303 235.385 3.73038 236.349 3.73038 237.549C3.73038 238.737 2.97303 239.714 2.03121 239.714C1.08938 239.714 0.332031 238.737 0.332031 237.549ZM0.332031 214.803C0.332031 213.616 1.08938 212.639 2.03121 212.639C2.97303 212.639 3.73038 213.616 3.73038 214.803C3.73038 216.003 2.97303 216.968 2.03121 216.968C1.08938 216.968 0.332031 216.003 0.332031 214.803ZM0.332031 192.07C0.332031 190.87 1.08938 189.905 2.03121 189.905C2.97303 189.905 3.73038 190.87 3.73038 192.07C3.73038 193.27 2.97303 194.234 2.03121 194.234C1.08938 194.234 0.332031 193.27 0.332031 192.07ZM0.332031 169.336C0.332031 168.136 1.08938 167.172 2.03121 167.172C2.97303 167.172 3.73038 168.136 3.73038 169.336C3.73038 170.536 2.97303 171.501 2.03121 171.501C1.08938 171.501 0.332031 170.536 0.332031 169.336ZM0.332031 146.603C0.332031 145.403 1.08938 144.438 2.03121 144.438C2.97303 144.438 3.73038 145.403 3.73038 146.603C3.73038 147.79 2.97303 148.767 2.03121 148.767C1.08938 148.767 0.332031 147.79 0.332031 146.603ZM0.332031 123.869C0.332031 122.669 1.08938 121.705 2.03121 121.705C2.97303 121.705 3.73038 122.669 3.73038 123.869C3.73038 125.057 2.97303 126.021 2.03121 126.021C1.08938 126.021 0.332031 125.057 0.332031 123.869ZM0.332031 101.123C0.332031 99.9359 1.08938 98.9587 2.03121 98.9587C2.97303 98.9587 3.73038 99.9359 3.73038 101.123C3.73038 102.323 2.97303 103.288 2.03121 103.288C1.08938 103.288 0.332031 102.323 0.332031 101.123ZM0.332031 78.3897C0.332031 77.2023 1.08938 76.2252 2.03121 76.2252C2.97303 76.2252 3.73038 77.2023 3.73038 78.3897C3.73038 79.5895 2.97303 80.5542 2.03121 80.5542C1.08938 80.5542 0.332031 79.5895 0.332031 78.3897ZM0.332031 55.6562C0.332031 54.4564 1.08938 53.4917 2.03121 53.4917C2.97303 53.4917 3.73038 54.4564 3.73038 55.6562C3.73038 56.8559 2.97303 57.8207 2.03121 57.8207C1.08938 57.8207 0.332031 56.8559 0.332031 55.6562ZM0.332031 32.9227C0.332031 31.7229 1.08938 30.7582 2.03121 30.7582C2.97303 30.7582 3.73038 31.7229 3.73038 32.9227C3.73038 34.1101 2.97303 35.0872 2.03121 35.0872C1.08938 35.0872 0.332031 34.1101 0.332031 32.9227ZM0.332031 10.1891C0.332031 8.98937 1.08938 8.01225 2.03121 8.01225C2.97303 8.01225 3.73038 8.98937 3.73038 10.1891C3.73038 11.3765 2.97303 12.3536 2.03121 12.3536C1.08938 12.3536 0.332031 11.3765 0.332031 10.1891ZM0.332031 -12.5568C0.332031 -13.7442 1.08938 -14.7213 2.03121 -14.7213C2.97303 -14.7213 3.73038 -13.7442 3.73038 -12.5568C3.73038 -11.357 2.97303 -10.3923 2.03121 -10.3923C1.08938 -10.3923 0.332031 -11.357 0.332031 -12.5568ZM0.332031 -35.2903C0.332031 -36.4901 1.08938 -37.4548 2.03121 -37.4548C2.97303 -37.4548 3.73038 -36.4901 3.73038 -35.2903C3.73038 -34.0905 2.97303 -33.1258 2.03121 -33.1258C1.08938 -33.1258 0.332031 -34.0905 0.332031 -35.2903ZM0.332031 -58.0238C0.332031 -59.2236 1.08938 -60.1883 2.03121 -60.1883C2.97303 -60.1883 3.73038 -59.2236 3.73038 -58.0238C3.73038 -56.8241 2.97303 -55.8593 2.03121 -55.8593C1.08938 -55.8593 0.332031 -56.8241 0.332031 -58.0238ZM0.332031 -80.7574C0.332031 -81.9571 1.08938 -82.9219 2.03121 -82.9219C2.97303 -82.9219 3.73038 -81.9571 3.73038 -80.7574C3.73038 -79.57 2.97303 -78.5929 2.03121 -78.5929C1.08938 -78.5929 0.332031 -79.57 0.332031 -80.7574Z" fill="#1B1464"/>
</svg>
