<svg width="10" height="308" viewBox="0 0 10 308" fill="none" xmlns="http://www.w3.org/2000/svg">
<path d="M9 1C9 11.9312 1 11.9312 1 22.8531C1 33.7844 9 33.7844 9 44.7063C9 55.6375 1 55.6375 1 66.5594C1 77.4906 9 77.4906 9 88.4125C9 99.3438 1 99.3438 1 110.266C1 121.188 9 121.188 9 132.119C9 143.05 1 143.05 1 153.972C1 164.903 9 164.903 9 175.825C9 186.756 1 186.756 1 197.688C1 208.619 9 208.619 9 219.55C9 230.481 1 230.481 1 241.413C1 252.344 9 252.344 9 263.275C9 274.206 1 274.206 1 285.138C1 296.069 9 296.069 9 307" stroke="#1B1464" stroke-width="1.21595" stroke-miterlimit="10" stroke-linecap="round"/>
</svg>
